<?xml version="1.0" encoding="iso-8859-1"?>
<!-- Generator: Adobe Illustrator 16.0.0, SVG Export Plug-In . SVG Version: 6.00 Build 0)  -->
<!DOCTYPE svg PUBLIC "-//W3C//DTD SVG 1.1//EN" "http://www.w3.org/Graphics/SVG/1.1/DTD/svg11.dtd">
<svg version="1.1" id="Layer_1" xmlns="http://www.w3.org/2000/svg" xmlns:xlink="http://www.w3.org/1999/xlink" x="0px" y="0px"
	 width="512px" height="512px" viewBox="0 0 512 512" style="enable-background:new 0 0 512 512;" xml:space="preserve">
<path d="M52.513,459.487c2.441,2.441,5.64,3.661,8.839,3.661s6.398-1.22,8.839-3.661L256,273.678l185.81,185.81
	c2.44,2.441,5.64,3.661,8.839,3.661s6.398-1.22,8.839-3.661c4.881-4.881,4.881-12.796,0-17.678L273.678,256l185.81-185.81
	c4.881-4.882,4.881-12.796,0-17.678c-4.882-4.882-12.796-4.882-17.678,0L256,238.322L70.19,52.513
	c-4.882-4.882-12.796-4.882-17.678,0c-4.882,4.881-4.882,12.796,0,17.678L238.322,256L52.513,441.81
	C47.631,446.691,47.631,454.606,52.513,459.487z"/>
</svg>
