<?xml version="1.0" encoding="iso-8859-1"?>
<!-- Generator: Adobe Illustrator 16.0.0, SVG Export Plug-In . SVG Version: 6.00 Build 0)  -->
<!DOCTYPE svg PUBLIC "-//W3C//DTD SVG 1.1//EN" "http://www.w3.org/Graphics/SVG/1.1/DTD/svg11.dtd">
<svg version="1.1" id="Layer_1" xmlns="http://www.w3.org/2000/svg" xmlns:xlink="http://www.w3.org/1999/xlink" x="0px" y="0px"
	 width="512px" height="512px" viewBox="0 0 512 512" style="enable-background:new 0 0 512 512;" xml:space="preserve">
<g>
	<path d="M256,10.209c-91.992,0-166.834,74.841-166.834,166.833c0,36.967,21.764,93.187,68.493,176.926
		c31.887,57.137,63.627,105.4,64.966,107.432l22.941,34.774c2.313,3.507,6.232,5.617,10.434,5.617s8.121-2.11,10.434-5.617
		l22.94-34.772c1.326-2.009,32.835-49.855,64.967-107.434c46.729-83.735,68.493-139.955,68.493-176.926
		C422.834,85.05,347.992,10.209,256,10.209z M332.511,341.785c-31.685,56.776-62.697,103.869-64.003,105.848L256,466.592
		l-12.504-18.954c-1.314-1.995-32.563-49.511-64.007-105.853c-43.345-77.676-65.323-133.104-65.323-164.743
		c0-78.207,63.626-141.833,141.834-141.833s141.834,63.626,141.834,141.833C397.834,208.685,375.856,264.112,332.511,341.785z"/>
	<path d="M256,83.5c-51.005,0-92.5,41.496-92.5,92.5s41.495,92.5,92.5,92.5s92.5-41.496,92.5-92.5S307.005,83.5,256,83.5z
		 M256,243.5c-37.22,0-67.5-30.28-67.5-67.5s30.28-67.5,67.5-67.5s67.5,30.28,67.5,67.5S293.22,243.5,256,243.5z"/>
</g>
</svg>
